<svg width="1200" height="600" viewBox="0 0 1200 600" xmlns="http://www.w3.org/2000/svg">
  <defs>
    <linearGradient id="bg" x1="0" y1="0" x2="1" y2="1">
      <stop offset="0%" stop-color="#0b1f2f"/>
      <stop offset="100%" stop-color="#14384a"/>
    </linearGradient>
    <linearGradient id="accent" x1="0" y1="0" x2="1" y2="1">
      <stop offset="0%" stop-color="#4fd1c5"/>
      <stop offset="100%" stop-color="#51b7ff"/>
    </linearGradient>
  </defs>
  <rect width="1200" height="600" fill="url(#bg)" rx="40"/>
  <circle cx="200" cy="180" r="120" fill="rgba(255,255,255,0.07)"/>
  <circle cx="980" cy="150" r="100" fill="rgba(79,209,197,0.15)"/>
  <rect x="220" y="320" width="760" height="220" rx="32" fill="rgba(255,255,255,0.05)" stroke="rgba(255,255,255,0.12)"/>
  <rect x="280" y="370" width="220" height="24" rx="12" fill="url(#accent)"/>
  <rect x="280" y="410" width="340" height="18" rx="9" fill="rgba(255,255,255,0.16)"/>
  <rect x="280" y="440" width="500" height="18" rx="9" fill="rgba(255,255,255,0.12)"/>
  <rect x="280" y="470" width="240" height="18" rx="9" fill="rgba(255,255,255,0.08)"/>
  <text x="120" y="115" fill="#fff" font-family="Inter, sans-serif" font-size="58" font-weight="700">Vertica</text>
  <text x="120" y="180" fill="#9fc1d6" font-family="Inter, sans-serif" font-size="28">Analytics Platform</text>
  <path d="M560 124 L640 124 C652 124 660 132 660 144 L660 196 C660 208 652 216 640 216 L560 216 C548 216 540 208 540 196 L540 144 C540 132 548 124 560 124 Z" fill="rgba(255,255,255,0.1)"/>
  <circle cx="600" cy="170" r="22" fill="#4fd1c5"/>
</svg>