<svg width="1200" height="600" viewBox="0 0 1200 600" xmlns="http://www.w3.org/2000/svg">
  <defs>
    <linearGradient id="bg4" x1="0" y1="0" x2="1" y2="1">
      <stop offset="0%" stop-color="#091a28"/>
      <stop offset="100%" stop-color="#0f2a40"/>
    </linearGradient>
    <linearGradient id="bar" x1="0" y1="0" x2="1" y2="0">
      <stop offset="0%" stop-color="#4fd1c5"/>
      <stop offset="100%" stop-color="#60a5ff"/>
    </linearGradient>
  </defs>
  <rect width="1200" height="600" fill="url(#bg4)" rx="44"/>
  <rect x="140" y="200" width="220" height="220" rx="32" fill="rgba(255,255,255,0.08)"/>
  <rect x="420" y="170" width="220" height="255" rx="32" fill="rgba(255,255,255,0.1)"/>
  <rect x="700" y="230" width="220" height="195" rx="32" fill="rgba(255,255,255,0.07)"/>
  <rect x="180" y="260" width="160" height="16" rx="8" fill="url(#bar)"/>
  <rect x="180" y="295" width="120" height="14" rx="7" fill="rgba(255,255,255,0.16)"/>
  <rect x="460" y="235" width="140" height="14" rx="7" fill="rgba(255,255,255,0.18)"/>
  <rect x="460" y="270" width="180" height="14" rx="7" fill="rgba(255,255,255,0.14)"/>
  <rect x="760" y="290" width="120" height="14" rx="7" fill="rgba(255,255,255,0.17)"/>
  <circle cx="320" cy="390" r="36" fill="#4fd1c5" opacity="0.8"/>
  <circle cx="760" cy="360" r="44" fill="#74c9ff" opacity="0.72"/>
  <text x="105" y="120" fill="#fff" font-family="Inter, sans-serif" font-size="44" font-weight="700">Vertica Portfolio</text>
</svg>