<svg width="1200" height="600" viewBox="0 0 1200 600" xmlns="http://www.w3.org/2000/svg">
  <defs>
    <linearGradient id="bg3" x1="0" y1="0" x2="1" y2="1">
      <stop offset="0%" stop-color="#0c1d2d"/>
      <stop offset="100%" stop-color="#102841"/>
    </linearGradient>
    <linearGradient id="accent2" x1="0" y1="0" x2="1" y2="0">
      <stop offset="0%" stop-color="#4fd1c5"/>
      <stop offset="100%" stop-color="#3e86ff"/>
    </linearGradient>
  </defs>
  <rect width="1200" height="600" fill="url(#bg3)" rx="44"/>
  <rect x="150" y="160" width="200" height="220" rx="30" fill="rgba(255,255,255,0.08)"/>
  <rect x="430" y="120" width="220" height="300" rx="30" fill="rgba(255,255,255,0.1)"/>
  <rect x="730" y="190" width="220" height="200" rx="30" fill="rgba(255,255,255,0.07)"/>
  <rect x="345" y="220" width="210" height="16" rx="8" fill="url(#accent2)"/>
  <rect x="345" y="260" width="160" height="14" rx="7" fill="rgba(255,255,255,0.18)"/>
  <rect x="345" y="290" width="170" height="14" rx="7" fill="rgba(255,255,255,0.14)"/>
  <rect x="635" y="250" width="140" height="14" rx="7" fill="rgba(255,255,255,0.18)"/>
  <circle cx="900" cy="220" r="48" fill="#4fd1c5" opacity="0.65"/>
  <circle cx="950" cy="360" r="36" fill="#74c9ff" opacity="0.75"/>
  <text x="110" y="100" fill="#fff" font-family="Inter, sans-serif" font-size="44" font-weight="700">Core Technology</text>
  <path d="M930 210 H1020" stroke="#fff" stroke-width="4" stroke-linecap="round" opacity="0.18"/>
  <path d="M930 250 H1020" stroke="#fff" stroke-width="4" stroke-linecap="round" opacity="0.18"/>
</svg>