<svg width="1200" height="600" viewBox="0 0 1200 600" xmlns="http://www.w3.org/2000/svg">
  <defs>
    <linearGradient id="bg2" x1="0" y1="0" x2="1" y2="1">
      <stop offset="0%" stop-color="#142b45"/>
      <stop offset="100%" stop-color="#0b1a2f"/>
    </linearGradient>
    <linearGradient id="line" x1="0" y1="0" x2="1" y2="0">
      <stop offset="0%" stop-color="#4fd1c5"/>
      <stop offset="100%" stop-color="#74c9ff"/>
    </linearGradient>
  </defs>
  <rect width="1200" height="600" fill="url(#bg2)" rx="44"/>
  <rect x="120" y="120" width="360" height="280" rx="26" fill="rgba(255,255,255,0.09)"/>
  <rect x="860" y="130" width="200" height="400" rx="24" fill="rgba(255,255,255,0.06)"/>
  <rect x="560" y="180" width="360" height="260" rx="32" fill="rgba(255,255,255,0.08)"/>
  <rect x="160" y="180" width="280" height="18" rx="9" fill="url(#line)"/>
  <rect x="160" y="220" width="220" height="16" rx="8" fill="rgba(255,255,255,0.16)"/>
  <rect x="160" y="250" width="240" height="16" rx="8" fill="rgba(255,255,255,0.12)"/>
  <rect x="600" y="240" width="260" height="18" rx="9" fill="rgba(255,255,255,0.18)"/>
  <rect x="600" y="280" width="180" height="18" rx="9" fill="rgba(255,255,255,0.14)"/>
  <circle cx="290" cy="380" r="52" fill="#4fd1c5" opacity="0.75"/>
  <circle cx="830" cy="355" r="42" fill="#74c9ff" opacity="0.8"/>
  <text x="100" y="90" fill="#fff" font-family="Inter, sans-serif" font-size="42" font-weight="700">What is Vertica?</text>
</svg>